<svg version="1.1" xmlns="http://www.w3.org/2000/svg" xmlns:xlink="http://www.w3.org/1999/xlink" width="556" height="360"><defs/><g><text fill="#eeeeee" stroke="none" font-family="Arial" font-size="24px" font-style="normal" font-weight="normal" text-decoration="none" x="0" y="0">UNREGISTERED</text><text fill="#eeeeee" stroke="none" font-family="Arial" font-size="24px" font-style="normal" font-weight="normal" text-decoration="none" x="0" y="30">UNREGISTERED</text><text fill="#eeeeee" stroke="none" font-family="Arial" font-size="24px" font-style="normal" font-weight="normal" text-decoration="none" x="0" y="60">UNREGISTERED</text><text fill="#eeeeee" stroke="none" font-family="Arial" font-size="24px" font-style="normal" font-weight="normal" text-decoration="none" x="0" y="90">UNREGISTERED</text><text fill="#eeeeee" stroke="none" font-family="Arial" font-size="24px" font-style="normal" font-weight="normal" text-decoration="none" x="0" y="120">UNREGISTERED</text><text fill="#eeeeee" stroke="none" font-family="Arial" font-size="24px" font-style="normal" font-weight="normal" text-decoration="none" x="0" y="150">UNREGISTERED</text><text fill="#eeeeee" stroke="none" font-family="Arial" font-size="24px" font-style="normal" font-weight="normal" text-decoration="none" x="0" y="180">UNREGISTERED</text><text fill="#eeeeee" stroke="none" font-family="Arial" font-size="24px" font-style="normal" font-weight="normal" text-decoration="none" x="0" y="210">UNREGISTERED</text><text fill="#eeeeee" stroke="none" font-family="Arial" font-size="24px" font-style="normal" font-weight="normal" text-decoration="none" x="0" y="240">UNREGISTERED</text><text fill="#eeeeee" stroke="none" font-family="Arial" font-size="24px" font-style="normal" font-weight="normal" text-decoration="none" x="0" y="270">UNREGISTERED</text><text fill="#eeeeee" stroke="none" font-family="Arial" font-size="24px" font-style="normal" font-weight="normal" text-decoration="none" x="0" y="300">UNREGISTERED</text><text fill="#eeeeee" stroke="none" font-family="Arial" font-size="24px" font-style="normal" font-weight="normal" text-decoration="none" x="0" y="330">UNREGISTERED</text><text fill="#eeeeee" stroke="none" font-family="Arial" font-size="24px" font-style="normal" font-weight="normal" text-decoration="none" x="200" y="0">UNREGISTERED</text><text fill="#eeeeee" stroke="none" font-family="Arial" font-size="24px" font-style="normal" font-weight="normal" text-decoration="none" x="200" y="30">UNREGISTERED</text><text fill="#eeeeee" stroke="none" font-family="Arial" font-size="24px" font-style="normal" font-weight="normal" text-decoration="none" x="200" y="60">UNREGISTERED</text><text fill="#eeeeee" stroke="none" font-family="Arial" font-size="24px" font-style="normal" font-weight="normal" text-decoration="none" x="200" y="90">UNREGISTERED</text><text fill="#eeeeee" stroke="none" font-family="Arial" font-size="24px" font-style="normal" font-weight="normal" text-decoration="none" x="200" y="120">UNREGISTERED</text><text fill="#eeeeee" stroke="none" font-family="Arial" font-size="24px" font-style="normal" font-weight="normal" text-decoration="none" x="200" y="150">UNREGISTERED</text><text fill="#eeeeee" stroke="none" font-family="Arial" font-size="24px" font-style="normal" font-weight="normal" text-decoration="none" x="200" y="180">UNREGISTERED</text><text fill="#eeeeee" stroke="none" font-family="Arial" font-size="24px" font-style="normal" font-weight="normal" text-decoration="none" x="200" y="210">UNREGISTERED</text><text fill="#eeeeee" stroke="none" font-family="Arial" font-size="24px" font-style="normal" font-weight="normal" text-decoration="none" x="200" y="240">UNREGISTERED</text><text fill="#eeeeee" stroke="none" font-family="Arial" font-size="24px" font-style="normal" font-weight="normal" text-decoration="none" x="200" y="270">UNREGISTERED</text><text fill="#eeeeee" stroke="none" font-family="Arial" font-size="24px" font-style="normal" font-weight="normal" text-decoration="none" x="200" y="300">UNREGISTERED</text><text fill="#eeeeee" stroke="none" font-family="Arial" font-size="24px" font-style="normal" font-weight="normal" text-decoration="none" x="200" y="330">UNREGISTERED</text><text fill="#eeeeee" stroke="none" font-family="Arial" font-size="24px" font-style="normal" font-weight="normal" text-decoration="none" x="400" y="0">UNREGISTERED</text><text fill="#eeeeee" stroke="none" font-family="Arial" font-size="24px" font-style="normal" font-weight="normal" text-decoration="none" x="400" y="30">UNREGISTERED</text><text fill="#eeeeee" stroke="none" font-family="Arial" font-size="24px" font-style="normal" font-weight="normal" text-decoration="none" x="400" y="60">UNREGISTERED</text><text fill="#eeeeee" stroke="none" font-family="Arial" font-size="24px" font-style="normal" font-weight="normal" text-decoration="none" x="400" y="90">UNREGISTERED</text><text fill="#eeeeee" stroke="none" font-family="Arial" font-size="24px" font-style="normal" font-weight="normal" text-decoration="none" x="400" y="120">UNREGISTERED</text><text fill="#eeeeee" stroke="none" font-family="Arial" font-size="24px" font-style="normal" font-weight="normal" text-decoration="none" x="400" y="150">UNREGISTERED</text><text fill="#eeeeee" stroke="none" font-family="Arial" font-size="24px" font-style="normal" font-weight="normal" text-decoration="none" x="400" y="180">UNREGISTERED</text><text fill="#eeeeee" stroke="none" font-family="Arial" font-size="24px" font-style="normal" font-weight="normal" text-decoration="none" x="400" y="210">UNREGISTERED</text><text fill="#eeeeee" stroke="none" font-family="Arial" font-size="24px" font-style="normal" font-weight="normal" text-decoration="none" x="400" y="240">UNREGISTERED</text><text fill="#eeeeee" stroke="none" font-family="Arial" font-size="24px" font-style="normal" font-weight="normal" text-decoration="none" x="400" y="270">UNREGISTERED</text><text fill="#eeeeee" stroke="none" font-family="Arial" font-size="24px" font-style="normal" font-weight="normal" text-decoration="none" x="400" y="300">UNREGISTERED</text><text fill="#eeeeee" stroke="none" font-family="Arial" font-size="24px" font-style="normal" font-weight="normal" text-decoration="none" x="400" y="330">UNREGISTERED</text><g transform="translate(-142,-6) scale(1,1)"><rect fill="#C0C0C0" stroke="none" x="183" y="23" width="241.0830078125" height="160" opacity="0.2"/></g><g transform="translate(-142,-6) scale(1,1)"><rect fill="#ffffff" stroke="none" x="176" y="16" width="241.0830078125" height="160"/></g><g transform="translate(-142,-6) scale(1,1)"><path fill="none" stroke="#000000" d="M 176 16 L 417.0830078125 16 L 417.0830078125 176 L 176 176 L 176 16 Z Z" stroke-miterlimit="10"/></g><g transform="translate(-142,-6) scale(1,1)"><path fill="none" stroke="#000000" d="M 176 41 L 417.0830078125 41" stroke-miterlimit="10"/></g><g transform="translate(-142,-6) scale(1,1)"><path fill="none" stroke="#000000" d="M 176 139 L 417.0830078125 139" stroke-miterlimit="10"/></g><g transform="translate(-142,-6) scale(1,1)"><g><path fill="none" stroke="none"/><text fill="#000000" stroke="none" font-family="Arial" font-size="13px" font-style="normal" font-weight="bold" text-decoration="none" x="245.5888671875" y="35.5">LearningManager</text></g></g><g transform="translate(-142,-6) scale(1,1)"><g><path fill="none" stroke="none"/><text fill="#000000" stroke="none" font-family="Arial" font-size="13px" font-style="normal" font-weight="normal" text-decoration="none" x="181" y="58.5">+TrainBlockList: List&lt;Block&gt;</text></g></g><g transform="translate(-142,-6) scale(1,1)"><g><path fill="none" stroke="none"/><text fill="#000000" stroke="none" font-family="Arial" font-size="13px" font-style="normal" font-weight="normal" text-decoration="none" x="181" y="73.5">+TrainLabelList: List&lt;int&gt;</text></g></g><g transform="translate(-142,-6) scale(1,1)"><g><path fill="none" stroke="none"/><text fill="#000000" stroke="none" font-family="Arial" font-size="13px" font-style="normal" font-weight="normal" text-decoration="none" x="181" y="88.5">+TestBlockList: List&lt;Block&gt;</text></g></g><g transform="translate(-142,-6) scale(1,1)"><g><path fill="none" stroke="none"/><text fill="#000000" stroke="none" font-family="Arial" font-size="13px" font-style="normal" font-weight="normal" text-decoration="none" x="181" y="103.5">+TestLabelList: List&lt;int&gt;</text></g></g><g transform="translate(-142,-6) scale(1,1)"><g><path fill="none" stroke="none"/><text fill="#000000" stroke="none" font-family="Arial" font-size="13px" font-style="normal" font-weight="normal" text-decoration="none" x="181" y="118.5">+LearningWeight: Weight</text></g></g><g transform="translate(-142,-6) scale(1,1)"><g><path fill="none" stroke="none"/><text fill="#000000" stroke="none" font-family="Arial" font-size="13px" font-style="normal" font-weight="normal" text-decoration="none" x="181" y="133.5">+Accuracy: double</text></g></g><g transform="translate(-142,-6) scale(1,1)"><g><path fill="none" stroke="none"/><text fill="#000000" stroke="none" font-family="Arial" font-size="13px" font-style="normal" font-weight="normal" text-decoration="none" x="181" y="156.5">+LearnData(filedir)</text></g></g><g transform="translate(-142,-6) scale(1,1)"><g><path fill="none" stroke="none"/><text fill="#000000" stroke="none" font-family="Arial" font-size="13px" font-style="normal" font-weight="normal" text-decoration="none" x="181" y="171.5">+ReadData(filedir)</text></g></g><g transform="translate(-142,-6) scale(1,1)"><rect fill="#C0C0C0" stroke="none" x="159" y="263" width="281.06689453125" height="100" opacity="0.2"/></g><g transform="translate(-142,-6) scale(1,1)"><rect fill="#ffffff" stroke="none" x="152" y="256" width="281.06689453125" height="100"/></g><g transform="translate(-142,-6) scale(1,1)"><path fill="none" stroke="#000000" d="M 152 256 L 433.06689453125 256 L 433.06689453125 356 L 152 356 L 152 256 Z Z" stroke-miterlimit="10"/></g><g transform="translate(-142,-6) scale(1,1)"><path fill="none" stroke="#000000" d="M 152 281 L 433.06689453125 281" stroke-miterlimit="10"/></g><g transform="translate(-142,-6) scale(1,1)"><path fill="none" stroke="#000000" d="M 152 304 L 433.06689453125 304" stroke-miterlimit="10"/></g><g transform="translate(-142,-6) scale(1,1)"><g><path fill="none" stroke="none"/><text fill="#000000" stroke="none" font-family="Arial" font-size="13px" font-style="normal" font-weight="bold" text-decoration="none" x="265.806640625" y="275.5">Classifier</text></g></g><g transform="translate(-142,-6) scale(1,1)"><g><path fill="none" stroke="none"/><text fill="#000000" stroke="none" font-family="Arial" font-size="13px" font-style="normal" font-weight="normal" text-decoration="none" x="157" y="298.5">+LearningWeight: Weight</text></g></g><g transform="translate(-142,-6) scale(1,1)"><g><path fill="none" stroke="none"/><text fill="#000000" stroke="none" font-family="Arial" font-size="13px" font-style="normal" font-weight="normal" text-decoration="none" x="157" y="321.5">+ClassifyBlock(BlockList): List&lt;Block&gt;</text></g></g><g transform="translate(-142,-6) scale(1,1)"><g><path fill="none" stroke="none"/><text fill="#000000" stroke="none" font-family="Arial" font-size="13px" font-style="normal" font-weight="normal" text-decoration="none" x="157" y="336.5">+FitBlock(TrainBlockList, TrainLabelList)</text></g></g><g transform="translate(-142,-6) scale(1,1)"><g><path fill="none" stroke="none"/><text fill="#000000" stroke="none" font-family="Arial" font-size="13px" font-style="normal" font-weight="normal" text-decoration="none" x="157" y="351.5">+Evaluate(TestBlockList, TestLabelList): double</text></g></g><g transform="translate(-142,-6) scale(1,1)"><rect fill="#C0C0C0" stroke="none" x="551" y="71" width="144" height="64" opacity="0.2"/></g><g transform="translate(-142,-6) scale(1,1)"><rect fill="#ffffff" stroke="none" x="544" y="64" width="144" height="64"/></g><g transform="translate(-142,-6) scale(1,1)"><path fill="none" stroke="#000000" d="M 544 64 L 688 64 L 688 128 L 544 128 L 544 64 Z Z" stroke-miterlimit="10"/></g><g transform="translate(-142,-6) scale(1,1)"><path fill="none" stroke="#000000" d="M 544 89 L 688 89" stroke-miterlimit="10"/></g><g transform="translate(-142,-6) scale(1,1)"><path fill="none" stroke="#000000" d="M 544 99 L 688 99" stroke-miterlimit="10"/></g><g transform="translate(-142,-6) scale(1,1)"><g><path fill="none" stroke="none"/><text fill="#000000" stroke="none" font-family="Arial" font-size="13px" font-style="normal" font-weight="bold" text-decoration="none" x="576.615966796875" y="83.5">DataManager</text></g></g><g transform="translate(-142,-6) scale(1,1)"><g><path fill="none" stroke="none"/><text fill="#000000" stroke="none" font-family="Arial" font-size="13px" font-style="normal" font-weight="normal" text-decoration="none" x="549" y="116.5">+LoadWeight(): Weight</text></g></g><g transform="translate(-142,-6) scale(1,1)"><path fill="none" stroke="#000000" d="M 294 177 L 293 255" stroke-miterlimit="10"/></g><g transform="translate(-142,-6) scale(1,1)"><path fill="none" stroke="#000000" d="M 288.92110814816283 244.78419649459642 L 293 255 L 297.33945184577954 244.8921239778992" stroke-miterlimit="10"/></g><g transform="translate(-142,-6) scale(1,1)"><path fill="none" stroke="#000000" d="M 418 96 L 543 96" stroke-miterlimit="10"/></g><g transform="translate(-142,-6) scale(1,1)"><path fill="none" stroke="#000000" d="M 532.8373251423759 100.20951775601598 L 543 96 L 532.8373251423758 91.79048224398402" stroke-miterlimit="10"/></g></g></svg>